Coordinates
version=1
nRows=117
nColumns=4
inDegrees=yes

Units are S.I. units (second, meters, Newtons, ...)
Angles are in degrees.

endheader
time	Hip_Angle	Knee_Angle	Ankle_Angle
      9.64166667	    127.01334378	    -75.84515556	    -34.46353310
      9.65000000	    126.96626910	    -75.85523878	    -34.42488924
      9.65833333	    126.99831566	    -75.84104829	    -34.37847354
      9.66666667	    127.03867006	    -75.83477907	    -34.33681773
      9.67500000	    127.06540752	    -75.84176213	    -34.30352775
      9.68333333	    127.09010935	    -75.86107768	    -34.27625036
      9.69166667	    127.17287321	    -75.87492617	    -34.24941262
      9.70000000	    127.19070920	    -75.89750193	    -34.22770357
      9.70833333	    127.20947651	    -75.90929577	    -34.20477438
      9.71666667	    127.21418871	    -75.92707434	    -34.18586689
      9.72500000	    127.21256770	    -75.93364310	    -34.16638495
      9.73333333	    127.19345192	    -75.94251077	    -34.14902323
      9.74166667	    127.17278520	    -75.93838741	    -34.12994916
      9.75000000	    127.15759368	    -75.93434509	    -34.11166733
      9.75833333	    127.13891407	    -75.93315357	    -34.09640229
      9.76666667	    127.13646960	    -75.93304981	    -34.08220888
      9.77500000	    127.11233563	    -75.95138850	    -34.07731298
      9.78333333	    127.09210716	    -75.97374012	    -34.07525181
      9.79166667	    127.06547809	    -76.00606784	    -34.07825821
      9.80000000	    127.04060987	    -76.03958756	    -34.08410831
      9.80833333	    127.01484416	    -76.07310278	    -34.08908532
      9.81666667	    126.98989027	    -76.10635331	    -34.09585736
      9.82500000	    126.91596318	    -76.16864093	    -34.11794185
      9.83333333	    126.92603514	    -76.15576513	    -34.10554423
      9.84166667	    126.82262563	    -76.18277557	    -34.11169413
      9.85000000	    126.78501828	    -76.17311871	    -34.11418244
      9.85833333	    126.70942704	    -76.21138261	    -34.13065483
      9.86666667	    126.68183701	    -76.21491642	    -34.13154746
      9.87500000	    126.64958683	    -76.22417980	    -34.13456758
      9.88333333	    126.64537454	    -76.21081391	    -34.12761443
      9.89166667	    126.61090412	    -76.23634935	    -34.13649920
      9.90000000	    126.52846342	    -76.29947849	    -34.16183033
      9.90833333	    126.48951926	    -76.33565752	    -34.17399111
      9.91666667	    126.42351427	    -76.38131660	    -34.18371579
      9.92500000	    126.44024740	    -76.36824187	    -34.17465700
      9.93333333	    126.49075930	    -76.36400278	    -34.17059244
      9.94166667	    126.46745218	    -76.37558919	    -34.17253829
      9.95000000	    126.42964493	    -76.38850810	    -34.17496786
      9.95833333	    126.30826162	    -76.41543280	    -34.18025595
      9.96666667	    126.34565755	    -76.40783624	    -34.17548287
      9.97500000	    126.31478694	    -76.41273080	    -34.17179567
      9.98333333	    126.31343406	    -76.42348223	    -34.18360502
      9.99166667	    126.27826405	    -76.43654510	    -34.18031374
     10.00000000	    126.25014435	    -76.45925776	    -34.17853170
     10.00833333	    126.22056463	    -76.50025963	    -34.18478739
     10.01666667	    126.19281076	    -76.54410102	    -34.19031706
     10.02500000	    126.13767727	    -76.58089032	    -34.17943834
     10.03333333	    126.12268410	    -76.62462136	    -34.18396247
     10.04166667	    126.13181153	    -76.67271778	    -34.19490216
     10.05000000	    126.11893540	    -76.69856838	    -34.19147184
     10.05833333	    126.09978271	    -76.72373045	    -34.18764004
     10.06666667	    126.09506559	    -76.73874183	    -34.18696301
     10.07500000	    126.05909430	    -76.74571003	    -34.17614888
     10.08333333	    125.96498990	    -76.76528776	    -34.16618160
     10.09166667	    125.96250677	    -76.76541130	    -34.14815170
     10.10000000	    126.02667577	    -76.75874356	    -34.12905672
     10.10833333	    126.02169815	    -76.77660200	    -34.11519152
     10.11666667	    126.00844029	    -76.80309951	    -34.10397901
     10.12500000	    125.93627878	    -76.84871123	    -34.09801277
     10.13333333	    125.93818119	    -76.87745334	    -34.08550999
     10.14166667	    125.94674620	    -76.90657257	    -34.07386147
     10.15000000	    125.96109438	    -76.92580977	    -34.05690320
     10.15833333	    125.95305308	    -76.95421231	    -34.04419465
     10.16666667	    125.97896713	    -76.94904909	    -34.01973533
     10.17500000	    125.99530133	    -76.94864689	    -33.99746262
     10.18333333	    126.03031254	    -76.91936240	    -33.96201775
     10.19166667	    126.04002437	    -76.90579665	    -33.93272702
     10.20000000	    126.11705401	    -76.88317283	    -33.89869326
     10.20833333	    126.08536844	    -76.86992319	    -33.86849761
     10.21666667	    126.10742432	    -76.86564611	    -33.83942186
     10.22500000	    126.12657109	    -76.86678122	    -33.81362744
     10.23333333	    126.15519313	    -76.87429660	    -33.78697053
     10.24166667	    126.14220927	    -76.91382711	    -33.77696571
     10.25000000	    126.24793413	    -76.91497920	    -33.75130924
     10.25833333	    126.29776528	    -76.91673188	    -33.72437856
     10.26666667	    126.38156699	    -76.88015656	    -33.68048088
     10.27500000	    126.36356414	    -76.91875548	    -33.67003442
     10.28333333	    126.42731794	    -76.88952330	    -33.62688606
     10.29166667	    126.37893321	    -76.89862795	    -33.59768361
     10.30000000	    126.40210860	    -76.89348094	    -33.56612922
     10.30833333	    126.41904345	    -76.88962478	    -33.53453082
     10.31666667	    126.43349367	    -76.88556735	    -33.50248784
     10.32500000	    126.49884611	    -76.88513234	    -33.47451781
     10.33333333	    126.54204182	    -76.87258080	    -33.43931830
     10.34166667	    126.47887552	    -76.90726196	    -33.42272053
     10.35000000	    126.48777477	    -76.93854957	    -33.40619045
     10.35833333	    126.49662680	    -76.96941836	    -33.38924055
     10.36666667	    126.50355999	    -77.01169215	    -33.37223446
     10.37500000	    126.51118320	    -77.04186667	    -33.35381072
     10.38333333	    126.50715952	    -77.07855270	    -33.33824662
     10.39166667	    126.50296171	    -77.10528355	    -33.32007624
     10.40000000	    126.50511281	    -77.12200354	    -33.29997080
     10.40833333	    126.57666670	    -77.11047006	    -33.27380511
     10.41666667	    126.54025678	    -77.14172778	    -33.25991030
     10.42500000	    126.44880279	    -77.16754529	    -33.24337052
     10.43333333	    126.43405929	    -77.19021804	    -33.22540019
     10.44166667	    126.42301419	    -77.21300855	    -33.20955537
     10.45000000	    126.42664278	    -77.22881500	    -33.19462008
     10.45833333	    126.48167173	    -77.24886843	    -33.18259716
     10.46666667	    126.46350826	    -77.29723071	    -33.17738216
     10.47500000	    126.47085300	    -77.32489312	    -33.16696734
     10.48333333	    126.46903935	    -77.34989485	    -33.15441771
     10.49166667	    126.47632534	    -77.37489575	    -33.13954034
     10.50000000	    126.37949379	    -77.41412286	    -33.12442191
     10.50833333	    126.33290394	    -77.45874310	    -33.11842008
     10.51666667	    126.33864405	    -77.45959698	    -33.09304721
     10.52500000	    126.35142752	    -77.45377418	    -33.06414143
     10.53333333	    126.41004722	    -77.41854133	    -33.02011675
     10.54166667	    126.49026064	    -77.41295113	    -32.99344550
     10.55000000	    126.43287544	    -77.43082784	    -32.97010369
     10.55833333	    126.44574888	    -77.44769760	    -32.95128407
     10.56666667	    126.44619710	    -77.48202831	    -32.93824388
     10.57500000	    126.46555310	    -77.50136420	    -32.91561770
     10.58333333	    126.48165035	    -77.52527207	    -32.89549453
     10.59166667	    126.50152020	    -77.53707798	    -32.87010308
     10.60000000	    126.53221592	    -77.54096295	    -32.84080750
     10.60833333	    126.54490019	    -77.55158375	    -32.81780374
